{"title":"Rene Clair - Sous les toits de Paris (1930)","uid":5838364,"size":1311115108,"categoryP":"video","categoryS":"movies","magnet":"?xt=urn:btih:b17562f0e1fadb03c07269305e27bf43d4cb67f9&amp;dn=Rene+Clair+-+Sous+les+toits+de+Paris+%281930%29&amp;tr=udp%3A%2F%2Ftracker.openbittorrent.com%3A80&amp;tr=udp%3A%2F%2Fopen.demonii.com%3A1337&amp;tr=udp%3A%2F%2Ftracker.coppersurfer.tk%3A6969&amp;tr=udp%3A%2F%2Fexodus.desync.com%3A6969","seeders":1,"leechers":0,"uploader":"mfccorrea","files":4,"time":1284820772,"description":"Rene Clair's Under the Roofs of Paris is one of the first French films shot in sound. The film is a relaxed melodrama where a Parisian street singer (Albert Prejean) and his friend (Edmond Greville) pursue the love of the same woman (Pola Illery). Clair chose to use sound only when needed, preferring to tell the story through his visuals as well as through his dialogue. The result is a striking film, boasting beautiful photography and sets, as well as a moving story. \n\n   General\n      Complete name : Sous les toits de Paris.avi\n      Format : AVI\n      Format/Info : Audio Video Interleave\n      File size : 1.22 GiB\n      Duration : 1h 32mn\n      Overall bit rate : 1 895 Kbps\n      Writing application : VirtualDubMod 1.5.10.2 (build 2540/release)\n      Writing library : VirtualDubMod build 2540/release\n   Video #0\n      ID : 0\n      Format : MPEG-4 Visual\n      Format profile : AdvancedSimple@L5\n      Format settings, BVOP : Yes\n      Format settings, QPel : No\n      Format settings, GMC : No warppoints\n      Format settings, Matrix : Default (MPEG)\n      Codec ID : XVID\n      Codec ID/Hint : XviD\n      Duration : 1h 32mn\n      Bit rate : 1 693 Kbps\n      Width : 640 pixels\n      Height : 480 pixels\n      Display aspect ratio : 4:3\n      Frame rate : 23.976 fps\n      Resolution : 24 bits\n      Colorimetry : 4:2:0\n      Scan type : Progressive\n      Bits/(Pixel*Frame) : 0.230\n      Stream size : 1.09 GiB (89%)\n      Writing library : XviD 1.2.1 (UTC 2008-12-04)\n   Audio #1\n      ID : 1\n      Format : AC-3\n      Format/Info : Audio Coding 3\n      Codec ID : 2000\n      Duration : 1h 32mn\n      Bit rate mode : Constant\n      Bit rate : 192 Kbps\n      Channel(s) : 1 channel\n      Channel positions : C\n      Sampling rate : 48.0 KHz\n      Stream size : 127 MiB (10%)\n      Alignment : Split accross interleaves\n      Interleave, duration : 42 ms (1.00 video frame)\n      Interleave, preload duration : 500 ms\n &lt;a href=&quot;\nhttp://www.imdb.com/title/tt0021409/&quot; rel=&quot;nofollow&quot; target=&quot;_NEW&quot;&gt;\nhttp://www.imdb.com/title/tt0021409/&lt;/a&gt;\n\nFrench audio; English, Spanish and Portuguese subtitles\n\nCriterion rip, posted originally at KG by charulata\n\nRene Clair - Sous les toits de Paris (1930)","torrent":{"xt":"urn:btih:b17562f0e1fadb03c07269305e27bf43d4cb67f9","amp;dn":"Rene+Clair+-+Sous+les+toits+de+Paris+%281930%29","amp;tr":["udp%3A%2F%2Ftracker.openbittorrent.com%3A80","udp%3A%2F%2Fopen.demonii.com%3A1337","udp%3A%2F%2Ftracker.coppersurfer.tk%3A6969","udp%3A%2F%2Fexodus.desync.com%3A6969"],"infoHash":"b17562f0e1fadb03c07269305e27bf43d4cb67f9","infoHashBuffer":{"type":"Buffer","data":[177,117,98,240,225,250,219,3,192,114,105,48,94,39,191,67,212,203,103,249]},"announce":[],"urlList":[]}}